<?xml version="1.0" encoding="utf-8"?>
<!-- Uploaded to: SVG Repo, www.svgrepo.com, Generator: SVG Repo Mixer Tools -->
<svg width="800px" height="800px" viewBox="0 0 1024 1024" class="icon"  version="1.1" xmlns="http://www.w3.org/2000/svg"><path d="M836.266667 179.2l-38.4 38.4c-134.4 138.666667-115.2 469.333333 0 588.8l38.4 38.4c10.666667 10.666667 27.733333 10.666667 38.4 0l76.8-78.933333c10.666667-10.666667 10.666667-27.733333 0-38.4l-72.533334-72.533334h-102.4c-27.733333-27.733333-27.733333-258.133333 0-285.866666h102.4l70.4-72.533334c10.666667-10.666667 10.666667-27.733333 0-38.4L874.666667 179.2c-10.666667-10.666667-27.733333-10.666667-38.4 0zM238.933333 179.2l-38.4 38.4c-134.4 138.666667-115.2 469.333333 0 588.8l38.4 38.4c10.666667 10.666667 27.733333 10.666667 38.4 0l76.8-78.933333c10.666667-10.666667 10.666667-27.733333 0-38.4l-72.533333-72.533334H181.333333c-27.733333-27.733333-27.733333-258.133333 0-285.866666h102.4l70.4-72.533334c10.666667-10.666667 10.666667-27.733333 0-38.4L277.333333 179.2c-10.666667-10.666667-27.733333-10.666667-38.4 0z" fill="#009688" /><path d="M539.733333 396.8l115.2 115.2-115.2 115.2z" fill="#2196F3" /><path d="M341.333333 469.333333h234.666667v85.333334H341.333333z" fill="#2196F3" /></svg>