<?xml version="1.0" encoding="utf-8"?>
<!-- Uploaded to: SVG Repo, www.svgrepo.com, Generator: SVG Repo Mixer Tools -->
<svg width="800px" height="800px" viewBox="0 0 1024 1024" class="icon"  version="1.1" xmlns="http://www.w3.org/2000/svg"><path d="M128 298.666667v512c0 46.933333 38.4 85.333333 85.333333 85.333333h597.333334c46.933333 0 85.333333-38.4 85.333333-85.333333V298.666667H128z" fill="#607D8B" /><path d="M426.666667 128h298.666666v277.333333H426.666667z" fill="#FF8A65" /><path d="M426.666667 128v277.333333l-85.333334-42.666666V128z" fill="#E0623B" /><path d="M810.666667 128h-128v403.2l213.333333 121.6V213.333333c0-46.933333-38.4-85.333333-85.333333-85.333333zM128 213.333333v371.2L364.8 512V128H213.333333c-46.933333 0-85.333333 38.4-85.333333 85.333333z" fill="#FFB74D" /><path d="M234.666667 467.2l-106.666667 32v-147.2c0-25.6 19.2-49.066667 44.8-53.333333 32-4.266667 61.866667 21.333333 61.866667 53.333333v115.2zM234.666667 226.133333l-106.666667 19.2V213.333333c0-46.933333 38.4-85.333333 85.333333-85.333333h21.333334v98.133333zM896 328.533333L789.333333 298.666667v170.666666l106.666667 42.666667zM810.666667 128h-21.333334v85.333333l106.666667 29.866667V213.333333c0-46.933333-38.4-85.333333-85.333333-85.333333z" fill="#805A26" /><path d="M490.666667 128h128v42.666667h-128zM490.666667 234.666667h128v128h-128z" fill="#AB4B2D" /></svg>